<svg width="128" height="128" viewBox="0 0 128 128" fill="none" xmlns="http://www.w3.org/2000/svg">
<rect width="128" height="128" rx="24" fill="#18181B"/>
<path d="M48.6 76.3C48.6 78.7 49.0333 80.7333 49.9 82.4C50.7667 84.0667 51.9 85.4333 53.3 86.5C54.7667 87.5 56.4667 88.2667 58.4 88.8C60.3333 89.2667 62.3333 89.5 64.4 89.5C65.8 89.5 67.3 89.4 68.9 89.2C70.5 88.9333 72 88.4667 73.4 87.8C74.8 87.1333 75.9667 86.2333 76.9 85.1C77.8333 83.9 78.3 82.4 78.3 80.6C78.3 78.6667 77.6667 77.1 76.4 75.9C75.2 74.7 73.6 73.7 71.6 72.9C69.6 72.1 67.3333 71.4 64.8 70.8C62.2667 70.2 59.7 69.5333 57.1 68.8C54.4333 68.1333 51.8333 67.3333 49.3 66.4C46.7667 65.4 44.5 64.1333 42.5 62.6C40.5 61.0667 38.8667 59.1667 37.6 56.9C36.4 54.5667 35.8 51.7667 35.8 48.5C35.8 44.8333 36.5667 41.6667 38.1 39C39.7 36.2667 41.7667 34 44.3 32.2C46.8333 30.4 49.7 29.0667 52.9 28.2C56.1 27.3333 59.3 26.9 62.5 26.9C66.2333 26.9 69.8 27.3333 73.2 28.2C76.6667 29 79.7333 30.3333 82.4 32.2C85.0667 34.0667 87.1667 36.4667 88.7 39.4C90.3 42.2667 91.1 45.7667 91.1 49.9H75.9C75.7667 47.7667 75.3 46 74.5 44.6C73.7667 43.2 72.7667 42.1 71.5 41.3C70.2333 40.5 68.7667 39.9333 67.1 39.6C65.5 39.2667 63.7333 39.1 61.8 39.1C60.5333 39.1 59.2667 39.2333 58 39.5C56.7333 39.7667 55.5667 40.2333 54.5 40.9C53.5 41.5667 52.6667 42.4 52 43.4C51.3333 44.4 51 45.6667 51 47.2C51 48.6 51.2667 49.7333 51.8 50.6C52.3333 51.4667 53.3667 52.2667 54.9 53C56.5 53.7333 58.6667 54.4667 61.4 55.2C64.2 55.9333 67.8333 56.8667 72.3 58C73.6333 58.2667 75.4667 58.7667 77.8 59.5C80.2 60.1667 82.5667 61.2667 84.9 62.8C87.2333 64.3333 89.2333 66.4 90.9 69C92.6333 71.5333 93.5 74.8 93.5 78.8C93.5 82.0667 92.8667 85.1 91.6 87.9C90.3333 90.7 88.4333 93.1333 85.9 95.2C83.4333 97.2 80.3333 98.7667 76.6 99.9C72.9333 101.033 68.6667 101.6 63.8 101.6C59.8667 101.6 56.0333 101.1 52.3 100.1C48.6333 99.1667 45.3667 97.6667 42.5 95.6C39.7 93.5333 37.4667 90.9 35.8 87.7C34.1333 84.5 33.3333 80.7 33.4 76.3H48.6Z" fill="white"/>
</svg>
