<?xml version="1.0" standalone="no"?>
<!DOCTYPE svg PUBLIC "-//W3C//DTD SVG 20010904//EN"
 "http://www.w3.org/TR/2001/REC-SVG-20010904/DTD/svg10.dtd">
<svg version="1.0" xmlns="http://www.w3.org/2000/svg"
 width="700.000000pt" height="700.000000pt" viewBox="0 0 700.000000 700.000000"
 preserveAspectRatio="xMidYMid meet">
<metadata>
Created by potrace 1.14, written by Peter Selinger 2001-2017
</metadata>
<g transform="translate(0.000000,700.000000) scale(0.100000,-0.100000)"
fill="#000000" stroke="none">
<path d="M1085 6984 c-176 -31 -359 -105 -515 -209 -100 -66 -283 -250 -349
-350 -104 -159 -174 -335 -205 -514 -14 -85 -16 -324 -16 -2411 0 -2554 -4
-2394 62 -2595 66 -205 164 -363 322 -520 160 -159 318 -257 524 -324 197 -65
41 -61 2592 -61 2087 0 2326 2 2411 16 548 94 979 525 1073 1073 14 85 16 324
16 2411 0 2550 4 2387 -62 2594 -146 462 -546 807 -1032 891 -78 13 -368 15
-2415 14 -1958 -1 -2339 -3 -2406 -15z m2635 -1478 c540 -68 888 -262 1101
-618 88 -145 138 -317 154 -520 l7 -88 -416 0 -416 0 0 33 c0 19 -9 69 -20
111 -70 273 -267 408 -637 435 -119 9 -251 1 -341 -20 -140 -34 -273 -133
-328 -246 -27 -54 -29 -66 -29 -178 0 -104 3 -125 22 -161 32 -59 95 -112 187
-154 139 -65 244 -95 849 -250 490 -124 635 -179 817 -308 133 -95 270 -254
346 -404 125 -246 123 -632 -5 -927 -54 -126 -121 -223 -230 -331 -177 -177
-391 -289 -692 -366 -155 -39 -290 -55 -519 -61 -315 -8 -561 25 -825 112
-294 96 -554 284 -705 509 -134 200 -210 453 -210 696 l0 50 409 0 410 0 5
-47 c24 -204 70 -313 183 -433 64 -68 88 -86 176 -129 169 -83 370 -119 590
-107 258 15 430 73 554 189 73 69 108 134 123 230 21 134 -15 246 -108 335
-115 111 -299 191 -626 273 -702 176 -934 256 -1145 396 -163 108 -318 288
-371 431 -58 155 -80 333 -62 507 27 260 119 451 307 640 208 210 497 344 860
399 121 19 442 20 585 2z"/>
</g>
</svg>
